<mxfile host="65bd71144e">
    <diagram id="h86k-39NHqz_u0iQ9HIy" name="Page-1">
        <mxGraphModel dx="532" dy="590" grid="1" gridSize="10" guides="1" tooltips="1" connect="1" arrows="1" fold="1" page="1" pageScale="1" pageWidth="1169" pageHeight="827" math="0" shadow="0">
            <root>
                <mxCell id="0"/>
                <mxCell id="1" parent="0"/>
                <mxCell id="2" value="" style="rounded=0;whiteSpace=wrap;html=1;" parent="1" vertex="1">
                    <mxGeometry x="40" y="80" width="600" height="400" as="geometry"/>
                </mxCell>
                <mxCell id="3" value="" style="rounded=0;whiteSpace=wrap;html=1;" parent="1" vertex="1">
                    <mxGeometry x="40" y="80" width="600" height="20" as="geometry"/>
                </mxCell>
                <mxCell id="4" value="Existing VMs" style="rounded=1;whiteSpace=wrap;html=1;" parent="1" vertex="1">
                    <mxGeometry x="50" y="140" width="180" height="330" as="geometry"/>
                </mxCell>
                <mxCell id="5" value="Create Template" style="rounded=1;whiteSpace=wrap;html=1;" parent="1" vertex="1">
                    <mxGeometry x="450" y="140" width="180" height="330" as="geometry"/>
                </mxCell>
                <mxCell id="6" value="Create VM" style="rounded=1;whiteSpace=wrap;html=1;" parent="1" vertex="1">
                    <mxGeometry x="250" y="140" width="180" height="330" as="geometry"/>
                </mxCell>
                <mxCell id="7" value="Settings | View | Help" style="rounded=0;whiteSpace=wrap;html=1;align=left;" parent="1" vertex="1">
                    <mxGeometry x="40" y="100" width="600" height="30" as="geometry"/>
                </mxCell>
                <mxCell id="8" value="&lt;h1&gt;Menu&lt;/h1&gt;" style="text;html=1;strokeColor=none;fillColor=none;spacing=5;spacingTop=-20;whiteSpace=wrap;overflow=hidden;rounded=0;align=center;" vertex="1" parent="1">
                    <mxGeometry x="260" y="40" width="160" height="40" as="geometry"/>
                </mxCell>
                <mxCell id="9" value="" style="rounded=0;whiteSpace=wrap;html=1;" vertex="1" parent="1">
                    <mxGeometry x="720" y="80" width="600" height="400" as="geometry"/>
                </mxCell>
                <mxCell id="10" value="" style="rounded=0;whiteSpace=wrap;html=1;" vertex="1" parent="1">
                    <mxGeometry x="720" y="80" width="600" height="20" as="geometry"/>
                </mxCell>
                <mxCell id="14" value="Settings | View | Help" style="rounded=0;whiteSpace=wrap;html=1;align=left;" vertex="1" parent="1">
                    <mxGeometry x="720" y="100" width="600" height="30" as="geometry"/>
                </mxCell>
                <mxCell id="15" value="&lt;h1&gt;Existing VMs&lt;/h1&gt;" style="text;html=1;strokeColor=none;fillColor=none;spacing=5;spacingTop=-20;whiteSpace=wrap;overflow=hidden;rounded=0;align=center;" vertex="1" parent="1">
                    <mxGeometry x="940" y="40" width="160" height="40" as="geometry"/>
                </mxCell>
                <mxCell id="23" value="" style="rounded=0;whiteSpace=wrap;html=1;" vertex="1" parent="1">
                    <mxGeometry x="40" y="560" width="600" height="400" as="geometry"/>
                </mxCell>
                <mxCell id="24" value="" style="rounded=0;whiteSpace=wrap;html=1;" vertex="1" parent="1">
                    <mxGeometry x="40" y="560" width="600" height="20" as="geometry"/>
                </mxCell>
                <mxCell id="28" value="Settings | View | Help" style="rounded=0;whiteSpace=wrap;html=1;align=left;" vertex="1" parent="1">
                    <mxGeometry x="40" y="580" width="600" height="30" as="geometry"/>
                </mxCell>
                <mxCell id="29" value="&lt;h1&gt;Create Template (Simple View)&lt;/h1&gt;" style="text;html=1;strokeColor=none;fillColor=none;spacing=5;spacingTop=-20;whiteSpace=wrap;overflow=hidden;rounded=0;align=center;" vertex="1" parent="1">
                    <mxGeometry x="120" y="520" width="440" height="40" as="geometry"/>
                </mxCell>
                <mxCell id="30" value="" style="rounded=0;whiteSpace=wrap;html=1;" vertex="1" parent="1">
                    <mxGeometry x="720" y="560" width="600" height="400" as="geometry"/>
                </mxCell>
                <mxCell id="31" value="" style="rounded=0;whiteSpace=wrap;html=1;" vertex="1" parent="1">
                    <mxGeometry x="720" y="560" width="600" height="20" as="geometry"/>
                </mxCell>
                <mxCell id="35" value="Settings | View | Help" style="rounded=0;whiteSpace=wrap;html=1;align=left;" vertex="1" parent="1">
                    <mxGeometry x="720" y="580" width="600" height="30" as="geometry"/>
                </mxCell>
                <mxCell id="36" value="&lt;h1&gt;Create VM&lt;/h1&gt;" style="text;html=1;strokeColor=none;fillColor=none;spacing=5;spacingTop=-20;whiteSpace=wrap;overflow=hidden;rounded=0;align=center;" vertex="1" parent="1">
                    <mxGeometry x="920" y="520" width="200" height="40" as="geometry"/>
                </mxCell>
                <mxCell id="62" value="" style="shape=table;html=1;whiteSpace=wrap;startSize=0;container=1;collapsible=0;childLayout=tableLayout;rounded=1;fillColor=none;" vertex="1" parent="1">
                    <mxGeometry x="740" y="140" width="560" height="320" as="geometry"/>
                </mxCell>
                <mxCell id="108" style="shape=partialRectangle;html=1;whiteSpace=wrap;collapsible=0;dropTarget=0;pointerEvents=0;fillColor=none;top=0;left=0;bottom=0;right=0;points=[[0,0.5],[1,0.5]];portConstraint=eastwest;" vertex="1" parent="62">
                    <mxGeometry width="560" height="40" as="geometry"/>
                </mxCell>
                <mxCell id="109" value="Name" style="shape=partialRectangle;html=1;whiteSpace=wrap;connectable=0;fillColor=none;top=0;left=0;bottom=0;right=0;overflow=hidden;pointerEvents=1;labelBackgroundColor=none;fontStyle=5" vertex="1" parent="108">
                    <mxGeometry width="140" height="40" as="geometry">
                        <mxRectangle width="140" height="40" as="alternateBounds"/>
                    </mxGeometry>
                </mxCell>
                <mxCell id="110" value="Template" style="shape=partialRectangle;html=1;whiteSpace=wrap;connectable=0;fillColor=none;top=0;left=0;bottom=0;right=0;overflow=hidden;pointerEvents=1;labelBackgroundColor=none;fontStyle=5" vertex="1" parent="108">
                    <mxGeometry x="140" width="140" height="40" as="geometry">
                        <mxRectangle width="140" height="40" as="alternateBounds"/>
                    </mxGeometry>
                </mxCell>
                <mxCell id="111" value="Created at" style="shape=partialRectangle;html=1;whiteSpace=wrap;connectable=0;fillColor=none;top=0;left=0;bottom=0;right=0;overflow=hidden;pointerEvents=1;labelBackgroundColor=none;fontStyle=5" vertex="1" parent="108">
                    <mxGeometry x="280" width="140" height="40" as="geometry">
                        <mxRectangle width="140" height="40" as="alternateBounds"/>
                    </mxGeometry>
                </mxCell>
                <mxCell id="112" value="Last used at" style="shape=partialRectangle;html=1;whiteSpace=wrap;connectable=0;fillColor=none;top=0;left=0;bottom=0;right=0;overflow=hidden;pointerEvents=1;labelBackgroundColor=none;fontStyle=5" vertex="1" parent="108">
                    <mxGeometry x="420" width="140" height="40" as="geometry">
                        <mxRectangle width="140" height="40" as="alternateBounds"/>
                    </mxGeometry>
                </mxCell>
                <mxCell id="63" value="" style="shape=partialRectangle;html=1;whiteSpace=wrap;collapsible=0;dropTarget=0;pointerEvents=0;fillColor=none;top=0;left=0;bottom=0;right=0;points=[[0,0.5],[1,0.5]];portConstraint=eastwest;" vertex="1" parent="62">
                    <mxGeometry y="40" width="560" height="40" as="geometry"/>
                </mxCell>
                <mxCell id="64" value="Test Windows 11" style="shape=partialRectangle;html=1;whiteSpace=wrap;connectable=0;fillColor=none;top=0;left=0;bottom=0;right=0;overflow=hidden;pointerEvents=1;" vertex="1" parent="63">
                    <mxGeometry width="140" height="40" as="geometry">
                        <mxRectangle width="140" height="40" as="alternateBounds"/>
                    </mxGeometry>
                </mxCell>
                <mxCell id="65" value="Windows 11" style="shape=partialRectangle;html=1;whiteSpace=wrap;connectable=0;fillColor=none;top=0;left=0;bottom=0;right=0;overflow=hidden;pointerEvents=1;" vertex="1" parent="63">
                    <mxGeometry x="140" width="140" height="40" as="geometry">
                        <mxRectangle width="140" height="40" as="alternateBounds"/>
                    </mxGeometry>
                </mxCell>
                <mxCell id="66" value="2022/02/22" style="shape=partialRectangle;html=1;whiteSpace=wrap;connectable=0;fillColor=none;top=0;left=0;bottom=0;right=0;overflow=hidden;pointerEvents=1;" vertex="1" parent="63">
                    <mxGeometry x="280" width="140" height="40" as="geometry">
                        <mxRectangle width="140" height="40" as="alternateBounds"/>
                    </mxGeometry>
                </mxCell>
                <mxCell id="75" value="2022/01/03" style="shape=partialRectangle;html=1;whiteSpace=wrap;connectable=0;fillColor=none;top=0;left=0;bottom=0;right=0;overflow=hidden;pointerEvents=1;" vertex="1" parent="63">
                    <mxGeometry x="420" width="140" height="40" as="geometry">
                        <mxRectangle width="140" height="40" as="alternateBounds"/>
                    </mxGeometry>
                </mxCell>
                <mxCell id="67" value="" style="shape=partialRectangle;html=1;whiteSpace=wrap;collapsible=0;dropTarget=0;pointerEvents=0;fillColor=none;top=0;left=0;bottom=0;right=0;points=[[0,0.5],[1,0.5]];portConstraint=eastwest;" vertex="1" parent="62">
                    <mxGeometry y="80" width="560" height="40" as="geometry"/>
                </mxCell>
                <mxCell id="68" value="KDE Neon" style="shape=partialRectangle;html=1;whiteSpace=wrap;connectable=0;fillColor=none;top=0;left=0;bottom=0;right=0;overflow=hidden;pointerEvents=1;" vertex="1" parent="67">
                    <mxGeometry width="140" height="40" as="geometry">
                        <mxRectangle width="140" height="40" as="alternateBounds"/>
                    </mxGeometry>
                </mxCell>
                <mxCell id="69" value="Custom" style="shape=partialRectangle;html=1;whiteSpace=wrap;connectable=0;fillColor=none;top=0;left=0;bottom=0;right=0;overflow=hidden;pointerEvents=1;" vertex="1" parent="67">
                    <mxGeometry x="140" width="140" height="40" as="geometry">
                        <mxRectangle width="140" height="40" as="alternateBounds"/>
                    </mxGeometry>
                </mxCell>
                <mxCell id="70" value="2021/10/03" style="shape=partialRectangle;html=1;whiteSpace=wrap;connectable=0;fillColor=none;top=0;left=0;bottom=0;right=0;overflow=hidden;pointerEvents=1;" vertex="1" parent="67">
                    <mxGeometry x="280" width="140" height="40" as="geometry">
                        <mxRectangle width="140" height="40" as="alternateBounds"/>
                    </mxGeometry>
                </mxCell>
                <mxCell id="76" value="2022/02/10" style="shape=partialRectangle;html=1;whiteSpace=wrap;connectable=0;fillColor=none;top=0;left=0;bottom=0;right=0;overflow=hidden;pointerEvents=1;" vertex="1" parent="67">
                    <mxGeometry x="420" width="140" height="40" as="geometry">
                        <mxRectangle width="140" height="40" as="alternateBounds"/>
                    </mxGeometry>
                </mxCell>
                <mxCell id="71" value="" style="shape=partialRectangle;html=1;whiteSpace=wrap;collapsible=0;dropTarget=0;pointerEvents=0;fillColor=none;top=0;left=0;bottom=0;right=0;points=[[0,0.5],[1,0.5]];portConstraint=eastwest;" vertex="1" parent="62">
                    <mxGeometry y="120" width="560" height="40" as="geometry"/>
                </mxCell>
                <mxCell id="72" value="Arch Dev" style="shape=partialRectangle;html=1;whiteSpace=wrap;connectable=0;fillColor=none;top=0;left=0;bottom=0;right=0;overflow=hidden;pointerEvents=1;" vertex="1" parent="71">
                    <mxGeometry width="140" height="40" as="geometry">
                        <mxRectangle width="140" height="40" as="alternateBounds"/>
                    </mxGeometry>
                </mxCell>
                <mxCell id="73" value="Arch" style="shape=partialRectangle;html=1;whiteSpace=wrap;connectable=0;fillColor=none;top=0;left=0;bottom=0;right=0;overflow=hidden;pointerEvents=1;" vertex="1" parent="71">
                    <mxGeometry x="140" width="140" height="40" as="geometry">
                        <mxRectangle width="140" height="40" as="alternateBounds"/>
                    </mxGeometry>
                </mxCell>
                <mxCell id="74" value="2021/06/09" style="shape=partialRectangle;html=1;whiteSpace=wrap;connectable=0;fillColor=none;top=0;left=0;bottom=0;right=0;overflow=hidden;pointerEvents=1;" vertex="1" parent="71">
                    <mxGeometry x="280" width="140" height="40" as="geometry">
                        <mxRectangle width="140" height="40" as="alternateBounds"/>
                    </mxGeometry>
                </mxCell>
                <mxCell id="77" value="2022/03/06" style="shape=partialRectangle;html=1;whiteSpace=wrap;connectable=0;fillColor=none;top=0;left=0;bottom=0;right=0;overflow=hidden;pointerEvents=1;" vertex="1" parent="71">
                    <mxGeometry x="420" width="140" height="40" as="geometry">
                        <mxRectangle width="140" height="40" as="alternateBounds"/>
                    </mxGeometry>
                </mxCell>
                <mxCell id="88" style="shape=partialRectangle;html=1;whiteSpace=wrap;collapsible=0;dropTarget=0;pointerEvents=0;fillColor=none;top=0;left=0;bottom=0;right=0;points=[[0,0.5],[1,0.5]];portConstraint=eastwest;" vertex="1" parent="62">
                    <mxGeometry y="160" width="560" height="40" as="geometry"/>
                </mxCell>
                <mxCell id="89" style="shape=partialRectangle;html=1;whiteSpace=wrap;connectable=0;fillColor=none;top=0;left=0;bottom=0;right=0;overflow=hidden;pointerEvents=1;" vertex="1" parent="88">
                    <mxGeometry width="140" height="40" as="geometry">
                        <mxRectangle width="140" height="40" as="alternateBounds"/>
                    </mxGeometry>
                </mxCell>
                <mxCell id="90" style="shape=partialRectangle;html=1;whiteSpace=wrap;connectable=0;fillColor=none;top=0;left=0;bottom=0;right=0;overflow=hidden;pointerEvents=1;" vertex="1" parent="88">
                    <mxGeometry x="140" width="140" height="40" as="geometry">
                        <mxRectangle width="140" height="40" as="alternateBounds"/>
                    </mxGeometry>
                </mxCell>
                <mxCell id="91" style="shape=partialRectangle;html=1;whiteSpace=wrap;connectable=0;fillColor=none;top=0;left=0;bottom=0;right=0;overflow=hidden;pointerEvents=1;" vertex="1" parent="88">
                    <mxGeometry x="280" width="140" height="40" as="geometry">
                        <mxRectangle width="140" height="40" as="alternateBounds"/>
                    </mxGeometry>
                </mxCell>
                <mxCell id="92" style="shape=partialRectangle;html=1;whiteSpace=wrap;connectable=0;fillColor=none;top=0;left=0;bottom=0;right=0;overflow=hidden;pointerEvents=1;" vertex="1" parent="88">
                    <mxGeometry x="420" width="140" height="40" as="geometry">
                        <mxRectangle width="140" height="40" as="alternateBounds"/>
                    </mxGeometry>
                </mxCell>
                <mxCell id="83" style="shape=partialRectangle;html=1;whiteSpace=wrap;collapsible=0;dropTarget=0;pointerEvents=0;fillColor=none;top=0;left=0;bottom=0;right=0;points=[[0,0.5],[1,0.5]];portConstraint=eastwest;" vertex="1" parent="62">
                    <mxGeometry y="200" width="560" height="40" as="geometry"/>
                </mxCell>
                <mxCell id="84" style="shape=partialRectangle;html=1;whiteSpace=wrap;connectable=0;fillColor=none;top=0;left=0;bottom=0;right=0;overflow=hidden;pointerEvents=1;" vertex="1" parent="83">
                    <mxGeometry width="140" height="40" as="geometry">
                        <mxRectangle width="140" height="40" as="alternateBounds"/>
                    </mxGeometry>
                </mxCell>
                <mxCell id="85" style="shape=partialRectangle;html=1;whiteSpace=wrap;connectable=0;fillColor=none;top=0;left=0;bottom=0;right=0;overflow=hidden;pointerEvents=1;" vertex="1" parent="83">
                    <mxGeometry x="140" width="140" height="40" as="geometry">
                        <mxRectangle width="140" height="40" as="alternateBounds"/>
                    </mxGeometry>
                </mxCell>
                <mxCell id="86" style="shape=partialRectangle;html=1;whiteSpace=wrap;connectable=0;fillColor=none;top=0;left=0;bottom=0;right=0;overflow=hidden;pointerEvents=1;" vertex="1" parent="83">
                    <mxGeometry x="280" width="140" height="40" as="geometry">
                        <mxRectangle width="140" height="40" as="alternateBounds"/>
                    </mxGeometry>
                </mxCell>
                <mxCell id="87" style="shape=partialRectangle;html=1;whiteSpace=wrap;connectable=0;fillColor=none;top=0;left=0;bottom=0;right=0;overflow=hidden;pointerEvents=1;" vertex="1" parent="83">
                    <mxGeometry x="420" width="140" height="40" as="geometry">
                        <mxRectangle width="140" height="40" as="alternateBounds"/>
                    </mxGeometry>
                </mxCell>
                <mxCell id="78" style="shape=partialRectangle;html=1;whiteSpace=wrap;collapsible=0;dropTarget=0;pointerEvents=0;fillColor=none;top=0;left=0;bottom=0;right=0;points=[[0,0.5],[1,0.5]];portConstraint=eastwest;" vertex="1" parent="62">
                    <mxGeometry y="240" width="560" height="40" as="geometry"/>
                </mxCell>
                <mxCell id="79" style="shape=partialRectangle;html=1;whiteSpace=wrap;connectable=0;fillColor=none;top=0;left=0;bottom=0;right=0;overflow=hidden;pointerEvents=1;" vertex="1" parent="78">
                    <mxGeometry width="140" height="40" as="geometry">
                        <mxRectangle width="140" height="40" as="alternateBounds"/>
                    </mxGeometry>
                </mxCell>
                <mxCell id="80" style="shape=partialRectangle;html=1;whiteSpace=wrap;connectable=0;fillColor=none;top=0;left=0;bottom=0;right=0;overflow=hidden;pointerEvents=1;" vertex="1" parent="78">
                    <mxGeometry x="140" width="140" height="40" as="geometry">
                        <mxRectangle width="140" height="40" as="alternateBounds"/>
                    </mxGeometry>
                </mxCell>
                <mxCell id="81" style="shape=partialRectangle;html=1;whiteSpace=wrap;connectable=0;fillColor=none;top=0;left=0;bottom=0;right=0;overflow=hidden;pointerEvents=1;" vertex="1" parent="78">
                    <mxGeometry x="280" width="140" height="40" as="geometry">
                        <mxRectangle width="140" height="40" as="alternateBounds"/>
                    </mxGeometry>
                </mxCell>
                <mxCell id="82" style="shape=partialRectangle;html=1;whiteSpace=wrap;connectable=0;fillColor=none;top=0;left=0;bottom=0;right=0;overflow=hidden;pointerEvents=1;" vertex="1" parent="78">
                    <mxGeometry x="420" width="140" height="40" as="geometry">
                        <mxRectangle width="140" height="40" as="alternateBounds"/>
                    </mxGeometry>
                </mxCell>
                <mxCell id="113" style="shape=partialRectangle;html=1;whiteSpace=wrap;collapsible=0;dropTarget=0;pointerEvents=0;fillColor=none;top=0;left=0;bottom=0;right=0;points=[[0,0.5],[1,0.5]];portConstraint=eastwest;" vertex="1" parent="62">
                    <mxGeometry y="280" width="560" height="40" as="geometry"/>
                </mxCell>
                <mxCell id="114" style="shape=partialRectangle;html=1;whiteSpace=wrap;connectable=0;fillColor=none;top=0;left=0;bottom=0;right=0;overflow=hidden;pointerEvents=1;" vertex="1" parent="113">
                    <mxGeometry width="140" height="40" as="geometry">
                        <mxRectangle width="140" height="40" as="alternateBounds"/>
                    </mxGeometry>
                </mxCell>
                <mxCell id="115" style="shape=partialRectangle;html=1;whiteSpace=wrap;connectable=0;fillColor=none;top=0;left=0;bottom=0;right=0;overflow=hidden;pointerEvents=1;" vertex="1" parent="113">
                    <mxGeometry x="140" width="140" height="40" as="geometry">
                        <mxRectangle width="140" height="40" as="alternateBounds"/>
                    </mxGeometry>
                </mxCell>
                <mxCell id="116" style="shape=partialRectangle;html=1;whiteSpace=wrap;connectable=0;fillColor=none;top=0;left=0;bottom=0;right=0;overflow=hidden;pointerEvents=1;" vertex="1" parent="113">
                    <mxGeometry x="280" width="140" height="40" as="geometry">
                        <mxRectangle width="140" height="40" as="alternateBounds"/>
                    </mxGeometry>
                </mxCell>
                <mxCell id="117" style="shape=partialRectangle;html=1;whiteSpace=wrap;connectable=0;fillColor=none;top=0;left=0;bottom=0;right=0;overflow=hidden;pointerEvents=1;" vertex="1" parent="113">
                    <mxGeometry x="420" width="140" height="40" as="geometry">
                        <mxRectangle width="140" height="40" as="alternateBounds"/>
                    </mxGeometry>
                </mxCell>
                <mxCell id="119" value="" style="rounded=1;whiteSpace=wrap;html=1;labelBackgroundColor=none;fontSize=14;fillColor=none;verticalAlign=top;align=left;" vertex="1" parent="1">
                    <mxGeometry x="50" y="620" width="280" height="160" as="geometry"/>
                </mxCell>
                <mxCell id="120" value="" style="rounded=1;whiteSpace=wrap;html=1;labelBackgroundColor=none;fontSize=14;fillColor=none;" vertex="1" parent="1">
                    <mxGeometry x="350" y="620" width="280" height="160" as="geometry"/>
                </mxCell>
                <mxCell id="121" value="" style="rounded=1;whiteSpace=wrap;html=1;labelBackgroundColor=none;fontSize=14;fillColor=none;" vertex="1" parent="1">
                    <mxGeometry x="50" y="790" width="280" height="160" as="geometry"/>
                </mxCell>
                <mxCell id="122" value="" style="rounded=1;whiteSpace=wrap;html=1;labelBackgroundColor=none;fontSize=14;fillColor=none;" vertex="1" parent="1">
                    <mxGeometry x="350" y="790" width="280" height="160" as="geometry"/>
                </mxCell>
                <mxCell id="124" value="General" style="text;html=1;strokeColor=none;fillColor=none;align=center;verticalAlign=middle;whiteSpace=wrap;rounded=0;labelBackgroundColor=none;fontSize=14;fontColor=#FFFFFF;" vertex="1" parent="1">
                    <mxGeometry x="50" y="620" width="80" height="30" as="geometry"/>
                </mxCell>
                <mxCell id="125" value="Storage" style="text;html=1;strokeColor=none;fillColor=none;align=center;verticalAlign=middle;whiteSpace=wrap;rounded=0;labelBackgroundColor=none;fontSize=14;fontColor=#FFFFFF;" vertex="1" parent="1">
                    <mxGeometry x="350" y="620" width="80" height="30" as="geometry"/>
                </mxCell>
                <mxCell id="126" value="Network &amp;amp; Sound" style="text;html=1;strokeColor=none;fillColor=none;align=center;verticalAlign=middle;whiteSpace=wrap;rounded=0;labelBackgroundColor=none;fontSize=14;fontColor=#FFFFFF;" vertex="1" parent="1">
                    <mxGeometry x="50" y="790" width="140" height="30" as="geometry"/>
                </mxCell>
                <mxCell id="127" value="Extra Devices" style="text;html=1;strokeColor=none;fillColor=none;align=center;verticalAlign=middle;whiteSpace=wrap;rounded=0;labelBackgroundColor=none;fontSize=14;fontColor=#FFFFFF;" vertex="1" parent="1">
                    <mxGeometry x="350" y="790" width="120" height="30" as="geometry"/>
                </mxCell>
                <mxCell id="128" value="Name..." style="rounded=0;whiteSpace=wrap;html=1;labelBackgroundColor=none;fontSize=14;fillColor=none;" vertex="1" parent="1">
                    <mxGeometry x="60" y="650" width="120" height="20" as="geometry"/>
                </mxCell>
                <mxCell id="129" value="OS..." style="rounded=0;whiteSpace=wrap;html=1;labelBackgroundColor=none;fontSize=14;fillColor=none;" vertex="1" parent="1">
                    <mxGeometry x="200" y="650" width="120" height="20" as="geometry"/>
                </mxCell>
                <mxCell id="130" value="Chipset..." style="rounded=0;whiteSpace=wrap;html=1;labelBackgroundColor=none;fontSize=14;fillColor=none;" vertex="1" parent="1">
                    <mxGeometry x="200" y="680" width="120" height="20" as="geometry"/>
                </mxCell>
                <mxCell id="131" value="Configuration..." style="rounded=0;whiteSpace=wrap;html=1;labelBackgroundColor=none;fontSize=14;fillColor=none;" vertex="1" parent="1">
                    <mxGeometry x="200" y="710" width="120" height="20" as="geometry"/>
                </mxCell>
                <mxCell id="132" value="Memory..." style="rounded=0;whiteSpace=wrap;html=1;labelBackgroundColor=none;fontSize=14;fillColor=none;" vertex="1" parent="1">
                    <mxGeometry x="200" y="740" width="120" height="20" as="geometry"/>
                </mxCell>
                <mxCell id="133" value="Firmware..." style="rounded=0;whiteSpace=wrap;html=1;labelBackgroundColor=none;fontSize=14;fillColor=none;" vertex="1" parent="1">
                    <mxGeometry x="60" y="680" width="120" height="20" as="geometry"/>
                </mxCell>
                <mxCell id="134" value="CPU Cores..." style="rounded=0;whiteSpace=wrap;html=1;labelBackgroundColor=none;fontSize=14;fillColor=none;" vertex="1" parent="1">
                    <mxGeometry x="60" y="710" width="120" height="20" as="geometry"/>
                </mxCell>
                <mxCell id="135" value="Multithreading..." style="rounded=0;whiteSpace=wrap;html=1;labelBackgroundColor=none;fontSize=14;fillColor=none;" vertex="1" parent="1">
                    <mxGeometry x="60" y="740" width="120" height="20" as="geometry"/>
                </mxCell>
                <mxCell id="136" value="Device Type..." style="rounded=0;whiteSpace=wrap;html=1;labelBackgroundColor=none;fontSize=14;fillColor=none;" vertex="1" parent="1">
                    <mxGeometry x="360" y="650" width="120" height="20" as="geometry"/>
                </mxCell>
                <mxCell id="137" value="Size..." style="rounded=0;whiteSpace=wrap;html=1;labelBackgroundColor=none;fontSize=14;fillColor=none;" vertex="1" parent="1">
                    <mxGeometry x="500" y="650" width="120" height="20" as="geometry"/>
                </mxCell>
                <mxCell id="138" value="Size..." style="rounded=0;whiteSpace=wrap;html=1;labelBackgroundColor=none;fontSize=14;fillColor=none;" vertex="1" parent="1">
                    <mxGeometry x="500" y="680" width="120" height="20" as="geometry"/>
                </mxCell>
                <mxCell id="139" value="Size..." style="rounded=0;whiteSpace=wrap;html=1;labelBackgroundColor=none;fontSize=14;fillColor=none;" vertex="1" parent="1">
                    <mxGeometry x="500" y="710" width="120" height="20" as="geometry"/>
                </mxCell>
                <mxCell id="141" value="Device Type..." style="rounded=0;whiteSpace=wrap;html=1;labelBackgroundColor=none;fontSize=14;fillColor=none;" vertex="1" parent="1">
                    <mxGeometry x="360" y="680" width="120" height="20" as="geometry"/>
                </mxCell>
                <mxCell id="142" value="Device Type..." style="rounded=0;whiteSpace=wrap;html=1;labelBackgroundColor=none;fontSize=14;fillColor=none;" vertex="1" parent="1">
                    <mxGeometry x="360" y="710" width="120" height="20" as="geometry"/>
                </mxCell>
                <mxCell id="144" value="Network Source..." style="rounded=0;whiteSpace=wrap;html=1;labelBackgroundColor=none;fontSize=14;fillColor=none;" vertex="1" parent="1">
                    <mxGeometry x="60" y="820" width="120" height="20" as="geometry"/>
                </mxCell>
                <mxCell id="145" value="Device Name..." style="rounded=0;whiteSpace=wrap;html=1;labelBackgroundColor=none;fontSize=14;fillColor=none;" vertex="1" parent="1">
                    <mxGeometry x="200" y="820" width="120" height="20" as="geometry"/>
                </mxCell>
                <mxCell id="146" value="&lt;span&gt;Device Model...&lt;/span&gt;" style="rounded=0;whiteSpace=wrap;html=1;labelBackgroundColor=none;fontSize=14;fillColor=none;" vertex="1" parent="1">
                    <mxGeometry x="200" y="850" width="120" height="20" as="geometry"/>
                </mxCell>
                <mxCell id="147" value="Sound Device..." style="rounded=0;whiteSpace=wrap;html=1;labelBackgroundColor=none;fontSize=14;fillColor=none;" vertex="1" parent="1">
                    <mxGeometry x="200" y="880" width="120" height="20" as="geometry"/>
                </mxCell>
                <mxCell id="149" value="MAC Address..." style="rounded=0;whiteSpace=wrap;html=1;labelBackgroundColor=none;fontSize=14;fillColor=none;" vertex="1" parent="1">
                    <mxGeometry x="60" y="850" width="120" height="20" as="geometry"/>
                </mxCell>
                <mxCell id="150" value="Pass Sound..." style="rounded=0;whiteSpace=wrap;html=1;labelBackgroundColor=none;fontSize=14;fillColor=none;" vertex="1" parent="1">
                    <mxGeometry x="60" y="880" width="120" height="20" as="geometry"/>
                </mxCell>
                <mxCell id="152" value="Device Type..." style="rounded=0;whiteSpace=wrap;html=1;labelBackgroundColor=none;fontSize=14;fillColor=none;" vertex="1" parent="1">
                    <mxGeometry x="360" y="820" width="120" height="20" as="geometry"/>
                </mxCell>
                <mxCell id="153" value="Device..." style="rounded=0;whiteSpace=wrap;html=1;labelBackgroundColor=none;fontSize=14;fillColor=none;" vertex="1" parent="1">
                    <mxGeometry x="500" y="820" width="120" height="20" as="geometry"/>
                </mxCell>
                <mxCell id="154" value="Device..." style="rounded=0;whiteSpace=wrap;html=1;labelBackgroundColor=none;fontSize=14;fillColor=none;" vertex="1" parent="1">
                    <mxGeometry x="500" y="850" width="120" height="20" as="geometry"/>
                </mxCell>
                <mxCell id="157" value="Device Type..." style="rounded=0;whiteSpace=wrap;html=1;labelBackgroundColor=none;fontSize=14;fillColor=none;" vertex="1" parent="1">
                    <mxGeometry x="360" y="850" width="120" height="20" as="geometry"/>
                </mxCell>
                <mxCell id="158" value="Add Device" style="rounded=0;whiteSpace=wrap;html=1;labelBackgroundColor=none;fontSize=14;fillColor=none;" vertex="1" parent="1">
                    <mxGeometry x="360" y="880" width="120" height="20" as="geometry"/>
                </mxCell>
                <mxCell id="162" value="Add Storage" style="rounded=0;whiteSpace=wrap;html=1;labelBackgroundColor=none;fontSize=14;fillColor=none;" vertex="1" parent="1">
                    <mxGeometry x="360" y="740" width="120" height="20" as="geometry"/>
                </mxCell>
                <mxCell id="163" value="" style="rounded=0;whiteSpace=wrap;html=1;" vertex="1" parent="1">
                    <mxGeometry x="40" y="1041" width="600" height="400" as="geometry"/>
                </mxCell>
                <mxCell id="164" value="" style="rounded=0;whiteSpace=wrap;html=1;" vertex="1" parent="1">
                    <mxGeometry x="40" y="1041" width="600" height="20" as="geometry"/>
                </mxCell>
                <mxCell id="165" value="Settings | View | Help" style="rounded=0;whiteSpace=wrap;html=1;align=left;" vertex="1" parent="1">
                    <mxGeometry x="40" y="1061" width="600" height="30" as="geometry"/>
                </mxCell>
                <mxCell id="200" value="&lt;h1&gt;Create Template (Advanced View)&lt;/h1&gt;" style="text;html=1;strokeColor=none;fillColor=none;spacing=5;spacingTop=-20;whiteSpace=wrap;overflow=hidden;rounded=0;align=center;" vertex="1" parent="1">
                    <mxGeometry x="120" y="1001" width="440" height="40" as="geometry"/>
                </mxCell>
                <mxCell id="202" value="Edit" style="rounded=1;whiteSpace=wrap;html=1;labelBackgroundColor=none;fontSize=14;fillColor=none;" vertex="1" parent="1">
                    <mxGeometry x="730" y="690" width="100" height="60" as="geometry"/>
                </mxCell>
                <mxCell id="223" value="" style="rounded=1;whiteSpace=wrap;html=1;labelBackgroundColor=none;fontSize=14;fillColor=none;align=left;verticalAlign=top;" vertex="1" parent="1">
                    <mxGeometry x="1070" y="620" width="240" height="260" as="geometry"/>
                </mxCell>
                <mxCell id="224" value="Abort" style="rounded=1;whiteSpace=wrap;html=1;labelBackgroundColor=none;fontSize=14;fillColor=none;" vertex="1" parent="1">
                    <mxGeometry x="1200" y="890" width="110" height="60" as="geometry"/>
                </mxCell>
                <mxCell id="225" value="Create" style="rounded=1;whiteSpace=wrap;html=1;labelBackgroundColor=none;fontSize=14;fillColor=none;" vertex="1" parent="1">
                    <mxGeometry x="1070" y="890" width="110" height="60" as="geometry"/>
                </mxCell>
                <mxCell id="265" value="List PCI Devices" style="rounded=0;whiteSpace=wrap;html=1;labelBackgroundColor=none;fontSize=14;fillColor=none;" vertex="1" parent="1">
                    <mxGeometry x="1090" y="800" width="200" height="30" as="geometry"/>
                </mxCell>
                <mxCell id="266" value="List Storage Devices" style="rounded=0;whiteSpace=wrap;html=1;labelBackgroundColor=none;fontSize=14;fillColor=none;" vertex="1" parent="1">
                    <mxGeometry x="1090" y="760" width="200" height="30" as="geometry"/>
                </mxCell>
                <mxCell id="267" value="List USB Devices" style="rounded=0;whiteSpace=wrap;html=1;labelBackgroundColor=none;fontSize=14;fillColor=none;" vertex="1" parent="1">
                    <mxGeometry x="1090" y="840" width="200" height="30" as="geometry"/>
                </mxCell>
                <mxCell id="268" value="Revert" style="rounded=1;whiteSpace=wrap;html=1;labelBackgroundColor=none;fontSize=14;fillColor=none;" vertex="1" parent="1">
                    <mxGeometry x="730" y="760" width="100" height="60" as="geometry"/>
                </mxCell>
                <mxCell id="269" value="Information/Warnings/Errors" style="rounded=1;whiteSpace=wrap;html=1;labelBackgroundColor=none;fontSize=14;fillColor=none;" vertex="1" parent="1">
                    <mxGeometry x="730" y="830" width="330" height="120" as="geometry"/>
                </mxCell>
                <mxCell id="272" value="Name..." style="rounded=1;whiteSpace=wrap;html=1;labelBackgroundColor=none;fontSize=14;fillColor=none;" vertex="1" parent="1">
                    <mxGeometry x="730" y="620" width="100" height="60" as="geometry"/>
                </mxCell>
                <mxCell id="273" value="Description..." style="rounded=1;whiteSpace=wrap;html=1;labelBackgroundColor=none;fontSize=14;fillColor=none;" vertex="1" parent="1">
                    <mxGeometry x="840" y="620" width="220" height="60" as="geometry"/>
                </mxCell>
                <mxCell id="274" value="Changes..." style="rounded=1;whiteSpace=wrap;html=1;labelBackgroundColor=none;fontSize=14;fillColor=none;" vertex="1" parent="1">
                    <mxGeometry x="840" y="690" width="220" height="130" as="geometry"/>
                </mxCell>
                <mxCell id="276" value="&lt;span style=&quot;color: rgb(240 , 240 , 240)&quot;&gt;Template Name&lt;/span&gt;&lt;br style=&quot;color: rgb(240 , 240 , 240)&quot;&gt;&lt;hr style=&quot;color: rgb(240 , 240 , 240)&quot;&gt;&lt;span style=&quot;color: rgb(240 , 240 , 240)&quot;&gt;OS / Chipset:&amp;nbsp;&lt;/span&gt;&lt;br style=&quot;color: rgb(240 , 240 , 240)&quot;&gt;&lt;span style=&quot;color: rgb(240 , 240 , 240)&quot;&gt;Cores / Threads:&lt;/span&gt;&lt;br style=&quot;color: rgb(240 , 240 , 240)&quot;&gt;&lt;span style=&quot;color: rgb(240 , 240 , 240)&quot;&gt;Configuration:&lt;/span&gt;&lt;br style=&quot;color: rgb(240 , 240 , 240)&quot;&gt;&lt;span style=&quot;color: rgb(240 , 240 , 240)&quot;&gt;Memory:&lt;/span&gt;&lt;br style=&quot;color: rgb(240 , 240 , 240)&quot;&gt;&lt;span style=&quot;color: rgb(240 , 240 , 240)&quot;&gt;Network:&lt;/span&gt;" style="text;html=1;strokeColor=none;fillColor=none;align=left;verticalAlign=top;whiteSpace=wrap;rounded=0;labelBackgroundColor=none;fontSize=14;fontColor=#FFFFFF;" vertex="1" parent="1">
                    <mxGeometry x="1080" y="630" width="220" height="120" as="geometry"/>
                </mxCell>
            </root>
        </mxGraphModel>
    </diagram>
</mxfile>